HIERARCHY
ROOT Hips
{
	OFFSET	0.00	0.00	0.00
	CHANNELS 6 Xposition Yposition Zposition Zrotation Xrotation Yrotation
	JOINT LeftUpLeg
	{
		OFFSET	 0.126116	-0.065224	 0.014019
		CHANNELS 3 Zrotation Xrotation Yrotation
		JOINT LeftLeg
		{
			OFFSET	 0.000000	 0.569914	 0.000000
			CHANNELS 3 Zrotation Xrotation Yrotation
			JOINT LeftFoot
			{
				OFFSET	 0.000000	 0.544423	 0.000000
				CHANNELS 3 Zrotation Xrotation Yrotation
				JOINT LeftToeBase
				{
					OFFSET	 0.000000	 0.207117	 0.000000
					CHANNELS 3 Zrotation Xrotation Yrotation
					End Site
					{
						OFFSET	 0.000000	 0.207117	 0.000000
					}
				}
			}
		}
	}
	JOINT RightUpLeg
	{
		OFFSET	-0.124023	-0.065224	 0.008373
		CHANNELS 3 Zrotation Xrotation Yrotation
		JOINT RightLeg
		{
			OFFSET	 0.000000	 0.570047	 0.000000
			CHANNELS 3 Zrotation Xrotation Yrotation
			JOINT RightFoot
			{
				OFFSET	 0.000000	 0.544354	 0.000000
				CHANNELS 3 Zrotation Xrotation Yrotation
				JOINT RightToeBase
				{
					OFFSET	 0.000000	 0.207540	 0.000000
					CHANNELS 3 Zrotation Xrotation Yrotation
					End Site
					{
						OFFSET	 0.000000	 0.207540	 0.000000
					}
				}
			}
		}
	}
	JOINT Spine
	{
		OFFSET	 0.000184	 0.117403	 0.007763
		CHANNELS 3 Zrotation Xrotation Yrotation
		JOINT Spine1
		{
			OFFSET	 0.000000	 0.137269	 0.000000
			CHANNELS 3 Zrotation Xrotation Yrotation
			JOINT Spine2
			{
				OFFSET	 0.000000	 0.156879	 0.000000
				CHANNELS 3 Zrotation Xrotation Yrotation
				JOINT LeftShoulder
				{
					OFFSET	 0.080501	 0.160143	 0.002496
					CHANNELS 3 Zrotation Xrotation Yrotation
					JOINT LeftArm
					{
						OFFSET	 0.000000	 0.164363	 0.000000
						CHANNELS 3 Zrotation Xrotation Yrotation
						JOINT LeftForeArm
						{
							OFFSET	 0.000000	 0.364576	 0.000000
							CHANNELS 3 Zrotation Xrotation Yrotation
							JOINT LeftHand
							{
								OFFSET	 0.000000	 0.360812	 0.000000
								CHANNELS 3 Zrotation Xrotation Yrotation
								JOINT LeftHandIndex1
								{
									OFFSET	 0.000000	 0.086006	 0.000000
									CHANNELS 3 Zrotation Xrotation Yrotation
									JOINT LeftHandIndex2
									{
										OFFSET	 0.000000	 0.047237	 0.000000
										CHANNELS 3 Zrotation Xrotation Yrotation
										JOINT LeftHandIndex3
										{
											OFFSET	-0.004284	 0.038165	 0.000551
											CHANNELS 3 Zrotation Xrotation Yrotation
											End Site
											{
												OFFSET	-0.004284	 0.038165	 0.000551
											}
										}
									}
								}
							}
						}
					}
				}
				JOINT Neck
				{
					OFFSET	 0.000000	 0.176489	 0.000000
					CHANNELS 3 Zrotation Xrotation Yrotation
					JOINT Head
					{
						OFFSET	 0.000000	 0.077941	 0.001747
						CHANNELS 3 Zrotation Xrotation Yrotation
						End Site
						{
							OFFSET	 0.000000	 0.077941	 0.001747
						}
					}
				}
				JOINT RightShoulder
				{
					OFFSET	-0.080363	 0.159706	-0.000306
					CHANNELS 3 Zrotation Xrotation Yrotation
					JOINT RightArm
					{
						OFFSET	 0.000000	 0.164196	 0.000000
						CHANNELS 3 Zrotation Xrotation Yrotation
						JOINT RightForeArm
						{
							OFFSET	 0.000000	 0.365611	 0.000000
							CHANNELS 3 Zrotation Xrotation Yrotation
							JOINT RightHand
							{
								OFFSET	 0.000000	 0.360648	 0.000000
								CHANNELS 3 Zrotation Xrotation Yrotation
								JOINT RightHandIndex1
								{
									OFFSET	 0.000000	 0.069977	 0.000000
									CHANNELS 3 Zrotation Xrotation Yrotation
									JOINT RightHandIndex2
									{
										OFFSET	 0.000000	 0.052305	 0.000000
										CHANNELS 3 Zrotation Xrotation Yrotation
										JOINT RightHandIndex3
										{
											OFFSET	 0.009002	 0.042196	 0.000782
											CHANNELS 3 Zrotation Xrotation Yrotation
											End Site
											{
												OFFSET	 0.009002	 0.042196	 0.000782
											}
										}
									}
								}
							}
						}
					}
				}
			}
		}
	}
}
MOTION
Frames:    9
Frame Time: 0.03333334
 0.517112	 1.041142	-0.147708	 31.499910	-29.280660	-103.600300	 48.364190	 88.651430	 120.074700	 34.933340	-80.853230	 39.706800	 34.896450	 35.810970	-42.770660	 2.131651	 50.695350	-8.534242	 64.198330	 82.721090	 92.935210	-16.499510	-73.119430	-16.793420	-52.676350	 59.718390	 74.238370	-1.641339	 33.237000	 2.843420	 2.439059	 13.356120	 5.834577	-3.076014	 15.853970	 7.589457	 1.060957	 19.820600	 0.897555	-108.961600	 6.962158	 92.315480	 13.624640	 50.501530	-2.702911	 28.863980	-1.438712	 0.595666	 30.870610	-26.928760	 51.905720	-4.883926	 4.362407	-8.018809	-6.732020	 6.421701	 1.686214	 4.963066	-4.014628	-0.346955	 6.922941	-5.041747	 3.362269	 6.758370	 2.440226	-45.235980	 83.686380	 10.986690	-88.476230	-31.262310	 35.618580	 56.228290	-78.413330	-5.179737	 8.212456	 53.734820	-35.914620	 24.254480	-3.861211	 15.128770	-1.418481	 14.302500	 21.318820	-6.314409	-8.239867	-2.131385	 0.447455
 0.593180	 1.102464	-0.179072	 19.032570	-16.421230	-88.536630	 177.776000	 42.076210	-27.528530	 37.670190	-81.420500	 45.000500	 52.196360	 32.874890	-59.129170	 0.176072	 43.629340	-4.276781	 129.188600	 61.056130	 41.645110	-11.381710	-66.408290	-12.158570	-54.231210	 56.723000	 72.366450	-1.645292	 33.301380	 2.847348	 3.979559	 12.004990	 7.694517	-8.112132	 1.863090	 7.580222	 11.189080	 19.756560	-1.343315	-103.302600	 4.200783	 91.144300	-5.599467	 64.559720	 15.994930	 30.452220	-1.535107	 1.009413	 6.325906	-14.840970	 59.345950	-2.788979	 1.812143	-8.327711	-6.923076	 7.660276	 1.928898	 4.963066	-4.014628	-0.346955	 11.625810	 2.914292	 2.444092	 0.470009	 6.640450	-44.863410	 88.552250	 6.672295	-91.596050	-49.383100	 39.544980	 72.765280	-80.501140	-5.214805	 5.949350	 26.203420	-30.610170	-8.878225	-3.131349	 16.427360	-2.121398	 14.264400	 21.696260	-6.404595	-8.239867	-2.131385	 0.447455
 0.664154	 1.149613	-0.172707	 14.519070	-8.984982	-68.335890	 179.644900	 15.013290	-23.862780	 8.016539	-56.530480	 13.912550	 48.700050	 47.820680	-72.857070	 1.656404	 39.943740	-6.215761	 129.641900	 39.652700	 53.998910	-7.507147	-56.589170	-8.368424	-48.175640	 53.092560	 64.742030	-1.649540	 33.367210	 2.851079	 3.360693	 8.953526	 8.500236	-7.151484	-0.395209	 6.714461	 11.477780	 13.844790	-4.517210	-101.535000	 0.196436	 91.460930	-2.209166	 65.187440	 12.202580	 25.529080	-1.320249	 1.113522	 4.030774	-9.394834	 55.152210	-2.491194	 10.908840	-7.847286	-7.020986	 8.149311	 2.026360	 4.963066	-4.014628	-0.346955	 15.706550	 2.419691	-0.149151	-2.776628	 3.578809	-46.980050	 88.751430	 1.019251	-91.800380	-50.234890	 18.983060	 89.598400	-55.390420	-4.355258	 6.692235	 8.631992	-30.042660	-23.085330	-2.912853	 16.676700	-2.549552	 14.313580	 22.392350	-6.609550	-8.239867	-2.131385	 0.447455
 0.840182	 1.176715	-0.148665	 9.891159	-3.882351	-43.202370	 174.409700	 16.307370	-4.846552	 5.565033	-46.446120	 9.339057	 75.206180	 48.735370	-97.039890	 1.397968	 23.660690	-7.473997	 135.530800	 28.540230	 55.977390	-5.906043	-50.051700	-5.751586	-43.206960	 50.850240	 57.847370	-1.837447	 32.383110	 3.369213	 1.479177	 7.197530	 9.135918	-5.872730	 1.592214	 5.432099	 8.582620	 8.797690	-11.521880	-103.729400	-7.394620	 98.052820	 24.832760	 55.317520	-17.971550	 32.308530	-1.630140	 1.479169	 10.426320	-5.318614	 50.179440	-4.781110	 14.811170	-6.870333	-7.133355	 8.520519	 2.096208	 4.963066	-4.014628	-0.346955	 15.580970	-8.165907	-6.755212	 0.814823	-3.848345	-49.426900	 87.856840	-4.894846	-90.903240	-28.065100	-11.843770	 90.382870	-4.763514	-0.440338	 6.862514	 8.070500	-52.015700	-3.846308	-2.907981	 16.366570	-3.086324	 14.375260	 23.427750	-6.911719	-8.239867	-2.131385	 0.447455
 0.906546	 1.212681	-0.133475	 7.068495	-3.771111	-39.677650	 172.799400	 13.779270	-2.018543	 4.558800	-40.763790	 6.961731	 71.908550	 47.898970	-88.804750	 1.398009	 23.660660	-7.474018	 154.887400	 32.114850	 30.174790	-5.546024	-48.274640	-5.086220	-48.097770	 53.639140	 62.792480	-1.882289	 31.087370	 3.749421	 0.727613	 6.622282	 8.807410	-6.853045	 0.406026	 4.278108	 8.265830	 7.567213	-13.552070	-107.604000	-15.157790	 100.283400	 30.128240	 50.479280	-22.558310	 33.655260	-1.684562	 1.535925	 6.525668	-5.878194	 41.761540	-6.142807	 15.595690	-6.312758	-7.190970	 8.722184	 2.133755	 4.963066	-4.014628	-0.346955	 13.422230	-8.059525	-10.299960	 2.132802	-1.295219	-48.776180	 89.243040	-0.950405	-91.553650	-23.258340	-11.467770	 78.497470	-4.747806	-0.438920	 5.685874	 34.198960	-50.038380	 22.637710	-2.905749	 16.220130	-3.339723	 14.391520	 23.853720	-7.033241	-8.239867	-2.131385	 0.447455
 0.957261	 1.247323	-0.117818	 3.116409	-4.377040	-38.841050	 173.625500	 7.316784	-1.470097	 3.386913	-32.650890	 4.128433	 67.990720	 47.473750	-80.691490	 1.398032	 23.660640	-7.474032	 165.639500	 25.764760	 14.584720	-3.784633	-37.447640	-2.692822	-40.948010	 51.167870	 54.977520	-1.489581	 29.131220	 3.545297	-0.159112	 5.760421	 7.999395	-5.339722	-0.214132	 3.127522	 5.163451	 5.154214	-13.921320	-109.861800	-22.390880	 102.263400	 33.235180	 49.590030	-27.201620	 35.230320	-1.750323	 1.527106	 1.571787	-10.380980	 33.110130	-7.192605	 15.542600	-5.927825	-7.255595	 8.956785	 2.178942	 4.963066	-4.014628	-0.346955	 10.165470	-9.075019	-12.808390	 1.332065	 1.731692	-46.969780	 91.876560	 2.321010	-92.342750	-21.679370	-10.656430	 67.847380	-4.718427	-0.436085	 5.604192	 38.938960	-39.728830	 34.113250	-2.903266	 16.059590	-3.617483	 14.410530	 24.320550	-7.166977	-8.239867	-2.131385	 0.447455
 0.979300	 1.264794	-0.108395	 1.563715	-4.619936	-39.636980	 173.939700	 3.560947	-2.516413	 2.659449	-26.714290	 2.190109	 65.207600	 47.336930	-75.446020	 1.398039	 23.660620	-7.474037	 169.034100	 21.137750	 7.503992	-2.753355	-29.134060	-1.117748	-36.166380	 48.827320	 49.566810	-1.300477	 28.052560	 3.442652	-0.757954	 5.077050	 6.996721	-3.389384	-0.111892	 2.323602	 2.177075	 3.316267	-13.106900	-111.051000	-26.746490	 102.811400	 34.682970	 49.529560	-28.521090	 35.478370	-1.760373	 1.460041	-4.536975	-8.797737	 26.151840	-7.539318	 15.713910	-5.761649	-7.298843	 9.072503	 2.202592	 4.963066	-4.014628	-0.346955	 7.806283	-9.812793	-13.773510	 0.869858	 2.902238	-45.567330	 92.822200	 4.916675	-93.034900	-20.789290	-9.347314	 62.288460	-4.696312	-0.434039	 5.424371	 34.757840	-31.492180	 37.535660	-2.901161	 15.921220	-3.856855	 14.427920	 24.722840	-7.282709	-8.239867	-2.131385	 0.447455
 0.983291	 1.271360	-0.102387	 1.102332	-4.679142	-41.634150	 173.992300	 1.726762	-4.776694	 2.240252	-23.182900	 0.333327	 63.388980	 48.005470	-72.386470	 1.398039	 23.660610	-7.474038	 169.668100	 18.235440	 3.188493	-2.083429	-22.871330	 0.496357	-32.938260	 47.430880	 45.588010	-1.188684	 27.265390	 3.372719	-1.381197	 4.346585	 5.395217	 0.293658	 1.698880	 1.128738	-2.042946	 0.702380	-11.115760	-111.953000	-30.320100	 102.629200	 35.359970	 49.679960	-28.077880	 35.848100	-1.772973	 1.366730	-11.897630	-1.781830	 18.210500	-7.528796	 16.070130	-5.692258	-7.339007	 9.141466	 2.218331	 4.963066	-4.014628	-0.346955	 5.457057	-10.607060	-14.002180	 0.533215	 3.219974	-44.071640	 92.943370	 7.728842	-93.775930	-20.390110	-7.573395	 58.548560	-4.683046	-0.432902	 4.924895	 25.287940	-22.196080	 39.026940	-2.899049	 15.763460	-4.129662	 14.448900	 25.181400	-7.415224	-8.239867	-2.131385	 0.447455
 0.982083	 1.273661	-0.102112	 0.765627	-4.612886	-42.315960	 174.301900	 1.130639	-5.260312	 2.149815	-22.139280	 0.104406	 62.727840	 47.979680	-71.588050	 1.398025	 23.660610	-7.474032	 170.059000	 17.329070	 2.592939	-1.912669	-21.169240	 0.776285	-32.520000	 46.788110	 44.707230	-1.183215	 27.230800	 3.368983	-1.570777	 4.064426	 4.153562	 1.936559	 2.209169	 0.417468	-4.049432	-0.298369	-9.155576	-111.920900	-30.162910	 102.588400	 36.049730	 49.397450	-28.314840	 35.051110	-1.745521	 1.175806	-15.716800	 4.160028	 13.958830	-7.438724	 16.626990	-5.653939	-7.349787	 9.034497	 2.200988	 4.963066	-4.014628	-0.346955	 5.534280	-10.271190	-13.242400	-0.166001	 2.089030	-44.050570	 92.913730	 8.194495	-93.943000	-20.246650	-6.848723	 58.037420	-4.679907	-0.432639	 3.839985	 18.146870	-16.650730	 37.449940	-2.896785	 15.627820	-4.364305	 14.467900	 25.575530	-7.529583	-8.239867	-2.131385	 0.447455
